<svg id="visual" viewBox="0 0 540 960" width="540" height="960" xmlns="http://www.w3.org/2000/svg" xmlns:xlink="http://www.w3.org/1999/xlink" version="1.1"><g stroke-width="1" stroke-linejoin="bevel"><path d="M265 441L327 425L271 375Z" fill="#3d505d" stroke="#3d505d"></path><path d="M326 364L266 359L271 375Z" fill="#caeeff" stroke="#caeeff"></path><path d="M271 375L154 405L265 441Z" fill="#1b2935" stroke="#1b2935"></path><path d="M327 425L326 364L271 375Z" fill="#637a88" stroke="#637a88"></path><path d="M337 506L359 424L327 425Z" fill="#2c3c48" stroke="#2c3c48"></path><path d="M327 425L359 424L326 364Z" fill="#9fbece" stroke="#9fbece"></path><path d="M326 364L276 307L266 359Z" fill="#caeeff" stroke="#caeeff"></path><path d="M359 424L394 396L326 364Z" fill="#3d505d" stroke="#3d505d"></path><path d="M326 364L373 318L276 307Z" fill="#3d505d" stroke="#3d505d"></path><path d="M265 441L337 506L327 425Z" fill="#0a1822" stroke="#0a1822"></path><path d="M359 424L431 512L394 396Z" fill="#0a1822" stroke="#0a1822"></path><path d="M265 441L312 518L337 506Z" fill="#0a1822" stroke="#0a1822"></path><path d="M151 448L231 509L265 441Z" fill="#77909f" stroke="#77909f"></path><path d="M265 441L231 509L312 518Z" fill="#1b2935" stroke="#1b2935"></path><path d="M154 405L271 375L266 359Z" fill="#b4d6e6" stroke="#b4d6e6"></path><path d="M329 590L324 522L312 518Z" fill="#77909f" stroke="#77909f"></path><path d="M312 518L324 522L337 506Z" fill="#b4d6e6" stroke="#b4d6e6"></path><path d="M394 396L373 318L326 364Z" fill="#b4d6e6" stroke="#b4d6e6"></path><path d="M160 333L154 405L266 359Z" fill="#8ba7b6" stroke="#8ba7b6"></path><path d="M291 214L261 269L276 307Z" fill="#77909f" stroke="#77909f"></path><path d="M276 307L176 314L266 359Z" fill="#637a88" stroke="#637a88"></path><path d="M154 405L151 448L265 441Z" fill="#8ba7b6" stroke="#8ba7b6"></path><path d="M261 269L176 314L276 307Z" fill="#0a1822" stroke="#0a1822"></path><path d="M176 314L160 333L266 359Z" fill="#1b2935" stroke="#1b2935"></path><path d="M89 421L142 474L151 448Z" fill="#9fbece" stroke="#9fbece"></path><path d="M151 448L142 474L231 509Z" fill="#506572" stroke="#506572"></path><path d="M89 421L151 448L154 405Z" fill="#1b2935" stroke="#1b2935"></path><path d="M214 577L246 574L231 509Z" fill="#9fbece" stroke="#9fbece"></path><path d="M231 509L246 574L312 518Z" fill="#b4d6e6" stroke="#b4d6e6"></path><path d="M394 396L449 346L373 318Z" fill="#caeeff" stroke="#caeeff"></path><path d="M266 224L227 243L261 269Z" fill="#2c3c48" stroke="#2c3c48"></path><path d="M506 455L449 346L394 396Z" fill="#9fbece" stroke="#9fbece"></path><path d="M379 565L431 512L337 506Z" fill="#caeeff" stroke="#caeeff"></path><path d="M337 506L431 512L359 424Z" fill="#caeeff" stroke="#caeeff"></path><path d="M379 565L337 506L324 522Z" fill="#b4d6e6" stroke="#b4d6e6"></path><path d="M266 224L261 269L291 214Z" fill="#b4d6e6" stroke="#b4d6e6"></path><path d="M261 269L227 243L176 314Z" fill="#b4d6e6" stroke="#b4d6e6"></path><path d="M81 307L91 348L160 333Z" fill="#637a88" stroke="#637a88"></path><path d="M329 590L379 565L324 522Z" fill="#0a1822" stroke="#0a1822"></path><path d="M142 474L155 533L231 509Z" fill="#b4d6e6" stroke="#b4d6e6"></path><path d="M155 533L214 577L231 509Z" fill="#637a88" stroke="#637a88"></path><path d="M246 574L329 590L312 518Z" fill="#3d505d" stroke="#3d505d"></path><path d="M340 616L329 590L327 633Z" fill="#9fbece" stroke="#9fbece"></path><path d="M428 598L395 565L379 565Z" fill="#77909f" stroke="#77909f"></path><path d="M379 565L395 565L431 512Z" fill="#0a1822" stroke="#0a1822"></path><path d="M385 239L276 307L373 318Z" fill="#506572" stroke="#506572"></path><path d="M395 565L442 522L431 512Z" fill="#506572" stroke="#506572"></path><path d="M540 385L468 337L449 346Z" fill="#506572" stroke="#506572"></path><path d="M506 455L394 396L431 512Z" fill="#9fbece" stroke="#9fbece"></path><path d="M421 255L385 239L373 318Z" fill="#9fbece" stroke="#9fbece"></path><path d="M456 294L373 318L449 346Z" fill="#8ba7b6" stroke="#8ba7b6"></path><path d="M385 239L291 214L276 307Z" fill="#637a88" stroke="#637a88"></path><path d="M91 348L154 405L160 333Z" fill="#77909f" stroke="#77909f"></path><path d="M91 348L89 421L154 405Z" fill="#b4d6e6" stroke="#b4d6e6"></path><path d="M71 551L100 568L155 533Z" fill="#2c3c48" stroke="#2c3c48"></path><path d="M468 337L456 294L449 346Z" fill="#77909f" stroke="#77909f"></path><path d="M456 294L421 255L373 318Z" fill="#8ba7b6" stroke="#8ba7b6"></path><path d="M115 261L160 333L176 314Z" fill="#506572" stroke="#506572"></path><path d="M329 590L340 616L379 565Z" fill="#2c3c48" stroke="#2c3c48"></path><path d="M395 565L447 563L442 522Z" fill="#3d505d" stroke="#3d505d"></path><path d="M272 631L329 590L246 574Z" fill="#1b2935" stroke="#1b2935"></path><path d="M100 568L150 575L155 533Z" fill="#caeeff" stroke="#caeeff"></path><path d="M155 533L150 575L214 577Z" fill="#b4d6e6" stroke="#b4d6e6"></path><path d="M267 633L272 631L246 574Z" fill="#1b2935" stroke="#1b2935"></path><path d="M428 598L447 563L395 565Z" fill="#637a88" stroke="#637a88"></path><path d="M442 522L506 455L431 512Z" fill="#637a88" stroke="#637a88"></path><path d="M515 507L506 455L442 522Z" fill="#b4d6e6" stroke="#b4d6e6"></path><path d="M468 337L508 310L456 294Z" fill="#1b2935" stroke="#1b2935"></path><path d="M267 633L246 574L214 577Z" fill="#2c3c48" stroke="#2c3c48"></path><path d="M186 639L267 633L214 577Z" fill="#1b2935" stroke="#1b2935"></path><path d="M272 631L327 633L329 590Z" fill="#1b2935" stroke="#1b2935"></path><path d="M91 348L65 393L89 421Z" fill="#77909f" stroke="#77909f"></path><path d="M71 551L155 533L142 474Z" fill="#637a88" stroke="#637a88"></path><path d="M283 739L327 633L272 631Z" fill="#b4d6e6" stroke="#b4d6e6"></path><path d="M340 616L428 598L379 565Z" fill="#9fbece" stroke="#9fbece"></path><path d="M141 233L176 314L227 243Z" fill="#506572" stroke="#506572"></path><path d="M141 233L115 261L176 314Z" fill="#1b2935" stroke="#1b2935"></path><path d="M91 348L70 331L65 393Z" fill="#9fbece" stroke="#9fbece"></path><path d="M141 233L227 243L205 166Z" fill="#b4d6e6" stroke="#b4d6e6"></path><path d="M205 166L227 243L266 224Z" fill="#2c3c48" stroke="#2c3c48"></path><path d="M115 261L81 307L160 333Z" fill="#1b2935" stroke="#1b2935"></path><path d="M455 681L428 598L404 708Z" fill="#8ba7b6" stroke="#8ba7b6"></path><path d="M447 563L515 507L442 522Z" fill="#2c3c48" stroke="#2c3c48"></path><path d="M81 307L70 331L91 348Z" fill="#3d505d" stroke="#3d505d"></path><path d="M434 195L389 197L385 239Z" fill="#77909f" stroke="#77909f"></path><path d="M385 239L389 197L291 214Z" fill="#0a1822" stroke="#0a1822"></path><path d="M235 153L205 166L266 224Z" fill="#2c3c48" stroke="#2c3c48"></path><path d="M446 214L385 239L421 255Z" fill="#0a1822" stroke="#0a1822"></path><path d="M540 356L508 310L468 337Z" fill="#b4d6e6" stroke="#b4d6e6"></path><path d="M489 244L446 214L421 255Z" fill="#3d505d" stroke="#3d505d"></path><path d="M540 576L515 507L447 563Z" fill="#8ba7b6" stroke="#8ba7b6"></path><path d="M506 455L540 385L449 346Z" fill="#8ba7b6" stroke="#8ba7b6"></path><path d="M53 518L142 474L89 421Z" fill="#637a88" stroke="#637a88"></path><path d="M150 575L186 639L214 577Z" fill="#b4d6e6" stroke="#b4d6e6"></path><path d="M489 244L421 255L456 294Z" fill="#1b2935" stroke="#1b2935"></path><path d="M540 485L540 385L506 455Z" fill="#637a88" stroke="#637a88"></path><path d="M161 644L186 639L150 575Z" fill="#0a1822" stroke="#0a1822"></path><path d="M404 708L340 616L327 633Z" fill="#1b2935" stroke="#1b2935"></path><path d="M540 385L540 356L468 337Z" fill="#0a1822" stroke="#0a1822"></path><path d="M508 310L489 244L456 294Z" fill="#caeeff" stroke="#caeeff"></path><path d="M235 153L266 224L291 214Z" fill="#0a1822" stroke="#0a1822"></path><path d="M446 214L434 195L385 239Z" fill="#b4d6e6" stroke="#b4d6e6"></path><path d="M335 147L235 153L291 214Z" fill="#3d505d" stroke="#3d505d"></path><path d="M540 209L434 195L446 214Z" fill="#b4d6e6" stroke="#b4d6e6"></path><path d="M540 258L489 244L508 310Z" fill="#506572" stroke="#506572"></path><path d="M0 455L53 518L89 421Z" fill="#2c3c48" stroke="#2c3c48"></path><path d="M0 418L89 421L65 393Z" fill="#9fbece" stroke="#9fbece"></path><path d="M53 518L71 551L142 474Z" fill="#1b2935" stroke="#1b2935"></path><path d="M100 568L161 644L150 575Z" fill="#506572" stroke="#506572"></path><path d="M540 576L540 485L515 507Z" fill="#9fbece" stroke="#9fbece"></path><path d="M515 507L540 485L506 455Z" fill="#8ba7b6" stroke="#8ba7b6"></path><path d="M335 147L291 214L389 197Z" fill="#9fbece" stroke="#9fbece"></path><path d="M379 127L335 147L389 197Z" fill="#0a1822" stroke="#0a1822"></path><path d="M82 651L161 644L100 568Z" fill="#b4d6e6" stroke="#b4d6e6"></path><path d="M404 708L327 633L339 741Z" fill="#9fbece" stroke="#9fbece"></path><path d="M115 261L66 261L81 307Z" fill="#506572" stroke="#506572"></path><path d="M81 307L55 267L70 331Z" fill="#3d505d" stroke="#3d505d"></path><path d="M0 369L0 418L65 393Z" fill="#b4d6e6" stroke="#b4d6e6"></path><path d="M103 160L66 261L115 261Z" fill="#0a1822" stroke="#0a1822"></path><path d="M103 160L115 261L141 233Z" fill="#1b2935" stroke="#1b2935"></path><path d="M540 356L540 308L508 310Z" fill="#2c3c48" stroke="#2c3c48"></path><path d="M20 219L55 267L66 261Z" fill="#b4d6e6" stroke="#b4d6e6"></path><path d="M66 261L55 267L81 307Z" fill="#506572" stroke="#506572"></path><path d="M235 153L210 142L205 166Z" fill="#0a1822" stroke="#0a1822"></path><path d="M205 166L103 160L141 233Z" fill="#0a1822" stroke="#0a1822"></path><path d="M203 58L210 142L249 49Z" fill="#637a88" stroke="#637a88"></path><path d="M203 58L207 141L210 142Z" fill="#1b2935" stroke="#1b2935"></path><path d="M210 142L207 141L205 166Z" fill="#0a1822" stroke="#0a1822"></path><path d="M0 369L65 393L70 331Z" fill="#77909f" stroke="#77909f"></path><path d="M540 308L540 258L508 310Z" fill="#b4d6e6" stroke="#b4d6e6"></path><path d="M489 244L540 209L446 214Z" fill="#8ba7b6" stroke="#8ba7b6"></path><path d="M0 308L0 369L70 331Z" fill="#637a88" stroke="#637a88"></path><path d="M0 418L0 455L89 421Z" fill="#caeeff" stroke="#caeeff"></path><path d="M53 518L0 530L71 551Z" fill="#3d505d" stroke="#3d505d"></path><path d="M405 121L379 127L389 197Z" fill="#9fbece" stroke="#9fbece"></path><path d="M335 147L287 58L235 153Z" fill="#9fbece" stroke="#9fbece"></path><path d="M405 121L389 197L434 195Z" fill="#3d505d" stroke="#3d505d"></path><path d="M516 624L447 563L428 598Z" fill="#8ba7b6" stroke="#8ba7b6"></path><path d="M516 624L540 576L447 563Z" fill="#3d505d" stroke="#3d505d"></path><path d="M55 267L0 308L70 331Z" fill="#2c3c48" stroke="#2c3c48"></path><path d="M0 222L0 308L55 267Z" fill="#2c3c48" stroke="#2c3c48"></path><path d="M459 79L405 121L434 195Z" fill="#3d505d" stroke="#3d505d"></path><path d="M203 58L93 125L207 141Z" fill="#77909f" stroke="#77909f"></path><path d="M455 681L516 624L428 598Z" fill="#3d505d" stroke="#3d505d"></path><path d="M428 598L340 616L404 708Z" fill="#506572" stroke="#506572"></path><path d="M207 141L103 160L205 166Z" fill="#3d505d" stroke="#3d505d"></path><path d="M0 455L0 530L53 518Z" fill="#77909f" stroke="#77909f"></path><path d="M29 630L82 651L100 568Z" fill="#9fbece" stroke="#9fbece"></path><path d="M516 624L540 602L540 576Z" fill="#3d505d" stroke="#3d505d"></path><path d="M272 631L267 633L266 732Z" fill="#506572" stroke="#506572"></path><path d="M516 624L540 652L540 602Z" fill="#1b2935" stroke="#1b2935"></path><path d="M29 630L100 568L71 551Z" fill="#1b2935" stroke="#1b2935"></path><path d="M266 732L267 633L186 639Z" fill="#9fbece" stroke="#9fbece"></path><path d="M266 732L186 639L216 743Z" fill="#1b2935" stroke="#1b2935"></path><path d="M540 258L540 209L489 244Z" fill="#0a1822" stroke="#0a1822"></path><path d="M216 743L186 639L161 644Z" fill="#0a1822" stroke="#0a1822"></path><path d="M266 732L283 739L272 631Z" fill="#b4d6e6" stroke="#b4d6e6"></path><path d="M103 160L20 219L66 261Z" fill="#637a88" stroke="#637a88"></path><path d="M0 530L0 576L71 551Z" fill="#b4d6e6" stroke="#b4d6e6"></path><path d="M283 739L339 741L327 633Z" fill="#1b2935" stroke="#1b2935"></path><path d="M66 708L92 680L82 651Z" fill="#637a88" stroke="#637a88"></path><path d="M82 651L92 680L161 644Z" fill="#8ba7b6" stroke="#8ba7b6"></path><path d="M266 732L283 789L283 739Z" fill="#3d505d" stroke="#3d505d"></path><path d="M192 753L216 743L161 644Z" fill="#3d505d" stroke="#3d505d"></path><path d="M283 739L325 769L339 741Z" fill="#2c3c48" stroke="#2c3c48"></path><path d="M0 576L29 630L71 551Z" fill="#637a88" stroke="#637a88"></path><path d="M0 166L0 222L20 219Z" fill="#3d505d" stroke="#3d505d"></path><path d="M20 219L0 222L55 267Z" fill="#2c3c48" stroke="#2c3c48"></path><path d="M207 141L93 125L103 160Z" fill="#b4d6e6" stroke="#b4d6e6"></path><path d="M103 160L0 166L20 219Z" fill="#b4d6e6" stroke="#b4d6e6"></path><path d="M287 58L335 147L331 60Z" fill="#77909f" stroke="#77909f"></path><path d="M423 751L455 681L404 708Z" fill="#caeeff" stroke="#caeeff"></path><path d="M540 751L540 652L455 681Z" fill="#77909f" stroke="#77909f"></path><path d="M455 681L540 652L516 624Z" fill="#77909f" stroke="#77909f"></path><path d="M66 708L95 700L92 680Z" fill="#637a88" stroke="#637a88"></path><path d="M92 680L95 700L161 644Z" fill="#77909f" stroke="#77909f"></path><path d="M331 60L335 147L379 127Z" fill="#77909f" stroke="#77909f"></path><path d="M405 121L331 60L379 127Z" fill="#506572" stroke="#506572"></path><path d="M409 0L331 60L405 121Z" fill="#8ba7b6" stroke="#8ba7b6"></path><path d="M95 700L192 753L161 644Z" fill="#0a1822" stroke="#0a1822"></path><path d="M283 789L325 769L283 739Z" fill="#0a1822" stroke="#0a1822"></path><path d="M283 789L266 732L216 743Z" fill="#506572" stroke="#506572"></path><path d="M339 741L423 751L404 708Z" fill="#caeeff" stroke="#caeeff"></path><path d="M249 49L210 142L235 153Z" fill="#8ba7b6" stroke="#8ba7b6"></path><path d="M282 0L249 49L287 58Z" fill="#506572" stroke="#506572"></path><path d="M287 58L249 49L235 153Z" fill="#506572" stroke="#506572"></path><path d="M387 805L423 751L339 741Z" fill="#8ba7b6" stroke="#8ba7b6"></path><path d="M540 121L459 79L434 195Z" fill="#506572" stroke="#506572"></path><path d="M0 692L66 708L29 630Z" fill="#8ba7b6" stroke="#8ba7b6"></path><path d="M29 630L66 708L82 651Z" fill="#3d505d" stroke="#3d505d"></path><path d="M95 700L168 769L192 753Z" fill="#caeeff" stroke="#caeeff"></path><path d="M203 58L79 96L93 125Z" fill="#3d505d" stroke="#3d505d"></path><path d="M93 125L0 166L103 160Z" fill="#506572" stroke="#506572"></path><path d="M0 116L0 166L93 125Z" fill="#3d505d" stroke="#3d505d"></path><path d="M192 753L283 789L216 743Z" fill="#9fbece" stroke="#9fbece"></path><path d="M387 805L452 756L423 751Z" fill="#0a1822" stroke="#0a1822"></path><path d="M151 804L283 789L192 753Z" fill="#3d505d" stroke="#3d505d"></path><path d="M151 804L168 769L100 793Z" fill="#1b2935" stroke="#1b2935"></path><path d="M387 805L339 741L325 769Z" fill="#637a88" stroke="#637a88"></path><path d="M423 751L452 756L455 681Z" fill="#0a1822" stroke="#0a1822"></path><path d="M540 209L540 121L434 195Z" fill="#77909f" stroke="#77909f"></path><path d="M540 121L515 85L459 79Z" fill="#0a1822" stroke="#0a1822"></path><path d="M323 0L287 58L331 60Z" fill="#637a88" stroke="#637a88"></path><path d="M0 576L0 692L29 630Z" fill="#caeeff" stroke="#caeeff"></path><path d="M100 793L168 769L95 700Z" fill="#2c3c48" stroke="#2c3c48"></path><path d="M286 855L387 805L325 769Z" fill="#0a1822" stroke="#0a1822"></path><path d="M323 0L331 60L409 0Z" fill="#9fbece" stroke="#9fbece"></path><path d="M323 0L282 0L287 58Z" fill="#0a1822" stroke="#0a1822"></path><path d="M249 49L214 0L203 58Z" fill="#b4d6e6" stroke="#b4d6e6"></path><path d="M85 36L47 61L79 96Z" fill="#637a88" stroke="#637a88"></path><path d="M409 0L405 121L459 79Z" fill="#637a88" stroke="#637a88"></path><path d="M282 0L253 0L249 49Z" fill="#caeeff" stroke="#caeeff"></path><path d="M79 96L0 116L93 125Z" fill="#0a1822" stroke="#0a1822"></path><path d="M47 61L0 116L79 96Z" fill="#8ba7b6" stroke="#8ba7b6"></path><path d="M253 0L214 0L249 49Z" fill="#0a1822" stroke="#0a1822"></path><path d="M100 793L95 700L66 708Z" fill="#77909f" stroke="#77909f"></path><path d="M168 769L151 804L192 753Z" fill="#caeeff" stroke="#caeeff"></path><path d="M283 789L286 855L325 769Z" fill="#77909f" stroke="#77909f"></path><path d="M540 754L540 751L452 756Z" fill="#caeeff" stroke="#caeeff"></path><path d="M452 756L540 751L455 681Z" fill="#8ba7b6" stroke="#8ba7b6"></path><path d="M0 692L0 719L66 708Z" fill="#77909f" stroke="#77909f"></path><path d="M489 817L540 754L452 756Z" fill="#b4d6e6" stroke="#b4d6e6"></path><path d="M85 36L79 96L203 58Z" fill="#77909f" stroke="#77909f"></path><path d="M89 0L85 36L203 58Z" fill="#caeeff" stroke="#caeeff"></path><path d="M461 0L409 0L459 79Z" fill="#637a88" stroke="#637a88"></path><path d="M84 808L100 793L66 708Z" fill="#2c3c48" stroke="#2c3c48"></path><path d="M540 121L540 57L515 85Z" fill="#8ba7b6" stroke="#8ba7b6"></path><path d="M515 85L491 25L459 79Z" fill="#77909f" stroke="#77909f"></path><path d="M540 57L491 25L515 85Z" fill="#b4d6e6" stroke="#b4d6e6"></path><path d="M47 61L0 82L0 116Z" fill="#b4d6e6" stroke="#b4d6e6"></path><path d="M0 0L0 82L47 61Z" fill="#9fbece" stroke="#9fbece"></path><path d="M540 0L461 0L491 25Z" fill="#9fbece" stroke="#9fbece"></path><path d="M491 25L461 0L459 79Z" fill="#1b2935" stroke="#1b2935"></path><path d="M303 877L286 855L274 879Z" fill="#0a1822" stroke="#0a1822"></path><path d="M151 804L286 855L283 789Z" fill="#8ba7b6" stroke="#8ba7b6"></path><path d="M387 805L489 817L452 756Z" fill="#637a88" stroke="#637a88"></path><path d="M84 808L95 812L100 793Z" fill="#8ba7b6" stroke="#8ba7b6"></path><path d="M100 793L95 812L151 804Z" fill="#3d505d" stroke="#3d505d"></path><path d="M0 719L84 808L66 708Z" fill="#caeeff" stroke="#caeeff"></path><path d="M395 853L489 817L387 805Z" fill="#77909f" stroke="#77909f"></path><path d="M303 877L395 853L387 805Z" fill="#caeeff" stroke="#caeeff"></path><path d="M214 0L89 0L203 58Z" fill="#637a88" stroke="#637a88"></path><path d="M85 36L70 0L47 61Z" fill="#637a88" stroke="#637a88"></path><path d="M540 867L540 800L489 817Z" fill="#3d505d" stroke="#3d505d"></path><path d="M489 817L540 800L540 754Z" fill="#506572" stroke="#506572"></path><path d="M89 0L70 0L85 36Z" fill="#0a1822" stroke="#0a1822"></path><path d="M274 879L286 855L167 887Z" fill="#637a88" stroke="#637a88"></path><path d="M286 855L303 877L387 805Z" fill="#8ba7b6" stroke="#8ba7b6"></path><path d="M249 900L274 879L167 887Z" fill="#9fbece" stroke="#9fbece"></path><path d="M286 855L151 804L167 887Z" fill="#b4d6e6" stroke="#b4d6e6"></path><path d="M540 57L540 0L491 25Z" fill="#3d505d" stroke="#3d505d"></path><path d="M167 887L151 804L95 812Z" fill="#77909f" stroke="#77909f"></path><path d="M274 879L249 900L303 877Z" fill="#b4d6e6" stroke="#b4d6e6"></path><path d="M454 898L480 864L395 853Z" fill="#77909f" stroke="#77909f"></path><path d="M454 898L395 853L389 960Z" fill="#1b2935" stroke="#1b2935"></path><path d="M395 853L480 864L489 817Z" fill="#caeeff" stroke="#caeeff"></path><path d="M84 919L167 887L95 812Z" fill="#1b2935" stroke="#1b2935"></path><path d="M0 719L0 819L84 808Z" fill="#0a1822" stroke="#0a1822"></path><path d="M84 808L22 866L95 812Z" fill="#637a88" stroke="#637a88"></path><path d="M70 0L0 0L47 61Z" fill="#0a1822" stroke="#0a1822"></path><path d="M347 935L395 853L303 877Z" fill="#2c3c48" stroke="#2c3c48"></path><path d="M480 864L540 867L489 817Z" fill="#b4d6e6" stroke="#b4d6e6"></path><path d="M0 819L20 854L84 808Z" fill="#b4d6e6" stroke="#b4d6e6"></path><path d="M492 897L540 867L480 864Z" fill="#506572" stroke="#506572"></path><path d="M454 898L492 897L480 864Z" fill="#3d505d" stroke="#3d505d"></path><path d="M339 960L347 935L249 900Z" fill="#8ba7b6" stroke="#8ba7b6"></path><path d="M249 900L347 935L303 877Z" fill="#1b2935" stroke="#1b2935"></path><path d="M454 898L492 960L492 897Z" fill="#9fbece" stroke="#9fbece"></path><path d="M215 960L249 900L167 887Z" fill="#0a1822" stroke="#0a1822"></path><path d="M0 879L22 866L20 854Z" fill="#0a1822" stroke="#0a1822"></path><path d="M20 854L22 866L84 808Z" fill="#9fbece" stroke="#9fbece"></path><path d="M22 866L84 919L95 812Z" fill="#2c3c48" stroke="#2c3c48"></path><path d="M0 819L0 879L20 854Z" fill="#0a1822" stroke="#0a1822"></path><path d="M22 866L0 893L84 919Z" fill="#637a88" stroke="#637a88"></path><path d="M215 960L339 960L249 900Z" fill="#b4d6e6" stroke="#b4d6e6"></path><path d="M347 935L389 960L395 853Z" fill="#506572" stroke="#506572"></path><path d="M142 960L215 960L167 887Z" fill="#1b2935" stroke="#1b2935"></path><path d="M339 960L389 960L347 935Z" fill="#506572" stroke="#506572"></path><path d="M0 879L0 893L22 866Z" fill="#1b2935" stroke="#1b2935"></path><path d="M84 919L142 960L167 887Z" fill="#8ba7b6" stroke="#8ba7b6"></path><path d="M93 960L142 960L84 919Z" fill="#b4d6e6" stroke="#b4d6e6"></path><path d="M389 960L454 960L454 898Z" fill="#77909f" stroke="#77909f"></path><path d="M492 897L540 960L540 867Z" fill="#77909f" stroke="#77909f"></path><path d="M72 960L93 960L84 919Z" fill="#1b2935" stroke="#1b2935"></path><path d="M454 960L492 960L454 898Z" fill="#3d505d" stroke="#3d505d"></path><path d="M0 960L72 960L84 919Z" fill="#2c3c48" stroke="#2c3c48"></path><path d="M492 960L540 960L492 897Z" fill="#77909f" stroke="#77909f"></path><path d="M0 893L0 960L84 919Z" fill="#637a88" stroke="#637a88"></path></g></svg>